HIERARCHY
ROOT Hips
{
	OFFSET 0.000000 0.000000 0.000000
	CHANNELS 6 Xposition Yposition Zposition Zrotation Yrotation Xrotation 
	JOINT LHipJoint
	{
		OFFSET 0.000000 0.000000 0.000000
		CHANNELS 3 Zrotation Yrotation Xrotation
		JOINT LeftUpLeg
		{
			OFFSET 1.363060 -1.794630 0.839290
			CHANNELS 3 Zrotation Yrotation Xrotation
			JOINT LeftLeg
			{
				OFFSET 2.448110 -6.726130 0.000000
				CHANNELS 3 Zrotation Yrotation Xrotation
				JOINT LeftFoot
				{
					OFFSET 2.562200 -7.039590 0.000000
					CHANNELS 3 Zrotation Yrotation Xrotation
					JOINT LeftToeBase
					{
						OFFSET 0.157640 -0.433110 2.322550
						CHANNELS 3 Zrotation Yrotation Xrotation
						End Site
						{
							OFFSET 0.000000 0.000000 0.000000
						}
					}
				}
			}
		}
	}
	JOINT RHipJoint
	{
		OFFSET 0.000000 0.000000 0.000000
		CHANNELS 3 Zrotation Yrotation Xrotation
		JOINT RightUpLeg
		{
			OFFSET -1.305520 -1.794630 0.839290
			CHANNELS 3 Zrotation Yrotation Xrotation
			JOINT RightLeg
			{
				OFFSET -2.542530 -6.985550 0.000000
				CHANNELS 3 Zrotation Yrotation Xrotation
				JOINT RightFoot
				{
					OFFSET -2.568260 -7.056230 0.000000
					CHANNELS 3 Zrotation Yrotation Xrotation
					JOINT RightToeBase
					{
						OFFSET -0.164730 -0.452590 2.363150
						CHANNELS 3 Zrotation Yrotation Xrotation
						End Site
						{
							OFFSET 0.000000 0.000000 0.000000
						}
					}
				}
			}
		}
	}
	JOINT LowerBack
	{
		OFFSET 0.000000 0.000000 0.000000
		CHANNELS 3 Zrotation Yrotation Xrotation
		JOINT Spine
		{
			OFFSET 0.028270 2.035590 -0.193380
			CHANNELS 3 Zrotation Yrotation Xrotation
			JOINT Spine1
			{
				OFFSET 0.056720 2.048850 -0.042750
				CHANNELS 3 Zrotation Yrotation Xrotation
				JOINT Neck
				{
					OFFSET 0.000000 0.000000 0.000000
					CHANNELS 3 Zrotation Yrotation Xrotation
					JOINT Neck1
					{
						OFFSET -0.054170 1.746240 0.172020
						CHANNELS 3 Zrotation Yrotation Xrotation
						JOINT Head
						{
							OFFSET 0.104070 1.761360 -0.123970
							CHANNELS 3 Zrotation Yrotation Xrotation
							End Site
							{
								OFFSET 0.000000 0.000000 0.000000
							}
						}
					}
				}
				JOINT LeftShoulder
				{
					OFFSET 0.000000 0.000000 0.000000
					CHANNELS 3 Zrotation Yrotation Xrotation
					JOINT LeftArm
					{
						OFFSET 3.362410 1.200890 -0.311210
						CHANNELS 3 Zrotation Yrotation Xrotation
						JOINT LeftForeArm
						{
							OFFSET 4.983000 -0.000000 -0.000000
							CHANNELS 3 Zrotation Yrotation Xrotation
							JOINT LeftHand
							{
								OFFSET 3.483560 -0.000000 -0.000000
								CHANNELS 3 Zrotation Yrotation Xrotation
								JOINT LeftFingerBase
								{
									OFFSET 0.000000 0.000000 0.000000
									CHANNELS 3 Zrotation Yrotation Xrotation
									JOINT LeftHandIndex1
									{
										OFFSET 0.715260 -0.000000 -0.000000
										CHANNELS 3 Zrotation Yrotation Xrotation
										End Site
										{
											OFFSET 0.000000 0.000000 0.000000
										}
									}
								}
								JOINT LThumb
								{
									OFFSET 0.000000 0.000000 0.000000
									CHANNELS 3 Zrotation Yrotation Xrotation
									End Site
									{
										OFFSET 0.000000 0.000000 0.000000
									}
								}
							}
						}
					}
				}
				JOINT RightShoulder
				{
					OFFSET 0.000000 0.000000 0.000000
					CHANNELS 3 Zrotation Yrotation Xrotation
					JOINT RightArm
					{
						OFFSET -3.136600 1.374050 -0.404650
						CHANNELS 3 Zrotation Yrotation Xrotation
						JOINT RightForeArm
						{
							OFFSET -5.241900 -0.000000 -0.000000
							CHANNELS 3 Zrotation Yrotation Xrotation
							JOINT RightHand
							{
								OFFSET -3.444170 -0.000000 -0.000000
								CHANNELS 3 Zrotation Yrotation Xrotation
								JOINT RightFingerBase
								{
									OFFSET 0.000000 0.000000 0.000000
									CHANNELS 3 Zrotation Yrotation Xrotation
									JOINT RightHandIndex1
									{
										OFFSET -0.622530 -0.000000 -0.000000
										CHANNELS 3 Zrotation Yrotation Xrotation
										End Site
										{
											OFFSET 0.000000 0.000000 0.000000
										}
									}
								}
								JOINT RThumb
								{
									OFFSET 0.000000 0.000000 0.000000
									CHANNELS 3 Zrotation Yrotation Xrotation
									End Site
									{
										OFFSET 0.000000 0.000000 0.000000
									}
								}
							}
						}
					}
				}
			}
		}
	}
}
MOTION
Frames: 11
Frame Time: 0.008333
21.454654 18.162912 6.080129 -168.689227 -70.739015 -178.000650 -2.858931 1.661272 0.823112 -15.540233 -7.484565 -23.599318 0.150814 8.892703 26.259175 -4.387812 15.743155 -0.965250 0.631100 5.083200 14.146000 -3.411410 -2.163065 -0.780657 -7.473218 40.032739 -57.459188 -14.384583 -19.087772 72.850493 -1.080862 -7.227044 24.342378 -0.006700 -0.529200 1.454300 6.285645 -0.929344 15.326575 5.593318 0.109928 -0.303780 3.091527 0.212503 -4.799246 -3.408721 -2.927831 -15.293627 -12.659626 0.279505 30.812827 -3.448400 -1.828400 8.922400 -6.926933 -11.904349 4.117700 -52.406952 26.154062 0.381390 143.375773 -38.164966 -104.522390 0.148567 -1.385414 2.465056 41.531804 -7.688145 -5.131000 -7.125000 0.000000 0.000000 10.665000 22.242000 -5.935400 5.468306 13.873408 5.466823 47.935460 -25.830092 -33.754588 -114.474330 49.919765 -84.002387 -1.006793 -0.168106 -12.280017 -10.994341 -40.870513 6.591100 7.125000 0.000000 0.000000 36.795400 -68.129600 -21.534400 
21.476162 18.171020 6.101749 -169.100484 -70.746169 -177.521680 -2.898780 1.660214 0.809639 -15.655294 -7.542456 -23.601004 0.088403 8.794204 25.939040 -4.374303 15.722301 -0.587603 0.684400 5.289400 14.736000 -3.445532 -2.127237 -0.819460 -8.496873 40.152656 -58.448453 -14.916427 -19.241015 74.464133 -1.187106 -6.878584 24.858756 -0.007600 -0.561400 1.542700 6.354634 -1.066910 15.683616 5.506213 -0.010230 -0.290637 3.257827 0.121517 -5.057372 -0.552897 -2.459271 -18.654208 -16.441354 2.135700 34.764466 -5.094400 -1.524600 10.905000 -6.967816 -11.593567 4.102720 -52.380746 25.368987 0.093832 144.330659 -37.587595 -105.165754 0.141389 -1.397108 2.680564 40.853886 -7.313558 -4.695000 -7.125000 0.000000 0.000000 10.241600 22.795100 -5.560400 5.428914 14.041652 5.567100 46.599475 -25.642256 -33.962193 -116.971386 49.519026 -86.149252 -1.055109 -0.162414 -12.950206 -12.072637 -41.891231 7.438000 7.125000 0.000000 0.000000 37.615500 -69.278400 -23.001500 
21.493391 18.180704 6.121681 -169.740667 -70.622703 -176.886800 -2.950241 1.636513 0.828888 -15.865919 -7.398480 -23.579147 0.027721 8.678257 25.619436 -4.354663 15.671989 -0.268362 0.668600 5.229000 14.562800 -3.474323 -2.142224 -0.819426 -9.578685 40.342318 -59.438435 -15.459318 -19.374129 76.087706 -1.280255 -6.648376 25.333896 -0.005400 -0.475200 1.305800 6.326772 -1.036722 15.928555 5.565394 0.040996 -0.205767 3.060436 0.168785 -4.938476 -3.412004 -2.740206 -15.407396 -12.669554 0.515565 30.381863 -3.408700 -1.698300 8.845400 -6.915646 -11.863019 4.145963 -52.364750 24.428573 -0.204656 145.131816 -37.026787 -105.742586 0.113532 -1.416615 3.178248 40.326585 -7.400886 -4.673800 -7.125000 0.000000 0.000000 9.862300 22.750400 -5.358500 5.444526 13.805259 5.515027 45.611169 -24.422955 -34.629260 -118.651331 49.174376 -87.555699 -1.084607 -0.156726 -13.022467 -12.022699 -42.240614 7.437100 7.125000 0.000000 0.000000 38.381100 -69.529400 -23.723800 
21.510507 18.194330 6.139248 -170.051952 -70.475150 -176.608153 -2.987344 1.643385 0.856015 -15.975294 -7.182149 -23.533368 -0.038981 8.559978 25.259899 -4.332086 15.619337 0.198488 0.657000 5.184600 14.435800 -3.489646 -2.127152 -0.845575 -10.446956 40.502693 -60.307125 -15.987687 -19.488770 77.650639 -1.322992 -6.648727 25.556553 -0.011000 -0.676600 1.859400 6.326691 -1.127154 16.309395 5.529034 -0.033566 -0.140634 3.098915 0.117646 -4.998974 -2.587118 -2.374526 -15.158363 -13.807355 1.101306 29.731379 -3.768300 -1.459900 8.669300 -6.933772 -11.808268 4.126395 -52.663059 23.727317 -0.284599 146.141588 -36.334934 -106.409482 0.077401 -1.445360 3.876582 40.120950 -7.628672 -4.804100 -7.125000 0.000000 0.000000 9.698100 22.520700 -5.318400 5.420860 13.817020 5.553040 44.568621 -23.476277 -34.662000 -120.458499 48.779866 -89.076394 -1.112766 -0.147573 -13.558606 -12.700354 -42.359351 7.912800 7.125000 0.000000 0.000000 38.013700 -69.864900 -23.746200 
21.524583 18.210658 6.153211 -170.292611 -70.357391 -176.327559 -3.024911 1.641184 0.869442 -16.045420 -7.049159 -23.503731 -0.103694 8.442400 24.894079 -4.352737 15.701840 0.627816 0.642400 5.127700 14.273100 -3.512793 -2.114674 -0.865677 -11.282563 40.557227 -61.217363 -16.482324 -19.597444 79.097325 -1.367313 -6.808614 25.838970 -0.036300 -1.230600 3.383600 6.282271 -1.152395 16.569065 5.531105 -0.038006 -0.144133 3.134913 0.115597 -5.138948 -2.735383 -2.447183 -15.131613 -13.560333 0.968894 29.946176 -3.694700 -1.516800 8.707000 -6.934927 -11.795468 4.136106 -52.952900 22.988460 0.179898 147.253058 -35.556712 -107.148662 0.053963 -1.476609 4.499178 39.630828 -7.518570 -4.610100 -7.125000 0.000000 0.000000 9.371100 22.745400 -5.085400 5.428651 13.793428 5.584043 43.716971 -22.881753 -34.585443 -122.181874 48.335066 -90.494577 -1.138023 -0.143958 -14.188738 -13.336312 -42.585614 8.380600 7.125000 0.000000 0.000000 37.893000 -70.267000 -23.987300 
21.540236 18.225522 6.164472 -170.711071 -70.170675 -175.806371 -3.056467 1.623392 0.866082 -16.163174 -6.935855 -23.536241 -0.164313 8.335401 24.562324 -4.369966 15.776066 0.945373 0.662000 5.203700 14.490300 -3.542414 -2.100801 -0.883527 -12.218402 40.552425 -62.257233 -16.935752 -19.698740 80.413329 -1.435718 -6.994050 26.275828 -0.046900 -1.396900 3.841700 6.206341 -1.093979 16.692060 5.455089 0.036787 -0.106567 3.066129 0.148072 -5.116906 -2.694953 -2.313395 -14.790982 -13.535167 1.066711 29.467887 -3.660800 -1.428300 8.521300 -6.931582 -11.790826 4.150239 -52.994108 21.919922 1.154445 148.199374 -34.930559 -107.748955 0.024770 -1.500039 5.204514 39.372075 -7.476874 -4.515800 -7.125000 0.000000 0.000000 9.201400 22.854100 -4.967800 5.416470 13.768375 5.592239 43.261356 -22.168519 -34.668299 -123.608280 47.918779 -91.673357 -1.160757 -0.141316 -14.511874 -13.433298 -42.506781 8.425200 7.125000 0.000000 0.000000 37.699300 -70.249700 -23.839400 
21.558703 18.239710 6.173705 -170.906453 -69.958347 -175.542795 -3.077428 1.612665 0.861856 -16.175685 -6.866313 -23.547764 -0.223808 8.232719 24.239599 -4.381507 15.825451 1.225497 0.723800 5.436100 15.156800 -3.564599 -2.086386 -0.901427 -12.984910 40.530109 -63.177608 -17.320189 -19.778014 81.530526 -1.520787 -7.102107 26.796349 -0.045800 -1.381600 3.799300 6.224173 -1.055809 16.847976 5.356760 0.092133 0.012159 2.871932 0.172349 -5.096993 -3.039080 -2.661639 -15.363457 -12.325524 0.450975 30.074528 -3.367800 -1.627600 8.739000 -6.909389 -11.776422 4.166274 -53.169846 20.939729 2.403130 149.069113 -34.361112 -108.297841 -0.012048 -1.521011 6.016278 38.986915 -7.560754 -4.508000 -7.125000 0.000000 0.000000 8.924500 22.808400 -4.824000 5.434778 13.728520 5.604328 42.990489 -21.483921 -34.412741 -124.922516 47.506149 -92.755120 -1.180265 -0.140274 -14.840910 -13.328632 -42.132842 8.283900 7.125000 0.000000 0.000000 37.128800 -69.938600 -23.199900 
21.574243 18.253899 6.180462 -170.882407 -69.781184 -175.505194 -3.094053 1.609867 0.862565 -16.110954 -6.840101 -23.530078 -0.279297 8.136471 23.936697 -4.395803 15.876065 1.459001 0.792500 5.682400 15.865600 -3.584924 -2.072956 -0.914645 -13.575221 40.443126 -63.928240 -17.610411 -19.841803 82.380103 -1.604310 -7.110191 27.280658 -0.028500 -1.089100 2.994100 6.211516 -1.068601 16.985440 5.328561 0.078262 0.109937 2.820596 0.162737 -5.048506 -3.388002 -2.792695 -15.474308 -11.580879 0.166686 30.393901 -3.148100 -1.711000 8.823100 -6.908188 -11.778847 4.167823 -53.582163 20.074940 3.864100 149.994837 -33.726797 -108.864455 -0.041219 -1.549812 6.499486 38.774829 -7.814566 -4.649800 -7.125000 0.000000 0.000000 8.751000 22.551400 -4.780200 5.452372 13.695610 5.621984 42.662150 -20.958480 -33.744182 -126.156516 47.077134 -93.774770 -1.200123 -0.148710 -15.301174 -12.835633 -41.580677 7.845700 7.125000 0.000000 0.000000 36.636500 -69.351200 -22.403000 
21.588544 18.270114 6.187331 -170.931616 -69.664327 -175.328095 -3.112230 1.599819 0.848668 -16.087437 -6.900722 -23.538522 -0.324674 8.056421 23.679589 -4.427174 15.985821 1.655519 0.810700 5.745900 16.048800 -3.619383 -2.055339 -0.925104 -14.176116 40.197283 -64.682487 -17.797443 -19.911882 82.916828 -1.697298 -7.199458 27.841284 -0.007100 -0.544400 1.495800 6.123643 -1.085462 17.076765 5.279651 0.040078 0.224888 2.822360 0.136733 -4.957677 -3.193046 -2.783035 -15.828720 -11.438834 0.173392 30.557400 -3.150200 -1.680800 8.931600 -6.911673 -11.749014 4.150807 -53.943011 19.048671 5.689260 150.656645 -33.342907 -109.238662 -0.069427 -1.570754 7.093538 38.968947 -8.122777 -4.900900 -7.125000 0.000000 0.000000 8.859700 22.187600 -4.915400 5.457537 13.686913 5.633641 42.541372 -20.276954 -33.137124 -127.110587 46.732916 -94.563745 -1.215179 -0.158518 -15.542231 -12.051592 -41.068769 7.224200 7.125000 0.000000 0.000000 36.539100 -68.691600 -21.816700 
21.601832 18.287343 6.193187 -170.830855 -69.501515 -175.314586 -3.114392 1.596979 0.830264 -16.014856 -6.986052 -23.544432 -0.349510 8.011550 23.516376 -4.494681 16.202218 1.780269 0.816900 5.767100 16.110200 -3.642400 -2.039660 -0.935616 -14.648432 40.015621 -65.276181 -17.883015 -19.957441 83.145135 -1.816402 -7.351216 28.574795 -0.001200 -0.222600 0.611600 6.079136 -1.044682 17.200838 5.171071 0.072917 0.446028 2.707339 0.139118 -4.769702 -2.750946 -2.775573 -16.408555 -11.295005 0.155474 30.520492 -3.193900 -1.627200 9.029600 -6.912396 -11.705595 4.126907 -54.276204 17.860865 7.829512 151.192374 -33.071324 -109.551470 -0.058778 -1.587088 7.567474 38.910383 -7.633511 -4.486100 -7.125000 0.000000 0.000000 8.870600 22.830800 -4.789600 5.457121 13.684030 5.626681 42.743333 -19.478039 -32.615622 -127.793432 46.488660 -95.116139 -1.224297 -0.157060 -15.438877 -11.644790 -40.880136 6.917200 7.125000 0.000000 0.000000 36.638500 -68.411400 -21.658500 
21.615570 18.299167 6.196790 -170.387774 -69.354826 -175.680696 -3.102776 1.602822 0.818553 -15.807065 -7.090062 -23.541090 -0.361651 7.989119 23.408200 -4.593974 16.500605 1.835911 0.785300 5.657300 15.793300 -3.652997 -2.033638 -0.932961 -14.910659 39.920004 -65.619261 -17.869386 -19.975431 83.093282 -1.913408 -7.391640 29.147302 -0.000600 0.164500 -0.452000 6.181362 -1.014391 17.371639 5.143181 0.154784 0.369401 2.579706 0.184572 -4.942445 -2.964204 -2.802459 -15.557702 -10.751494 -0.108545 30.076203 -3.010400 -1.666100 8.729900 -6.921806 -11.741997 4.113239 -54.904539 17.419954 10.594249 151.653902 -32.730908 -109.922370 -0.030122 -1.609757 8.061480 37.591328 -6.465626 -3.398000 -7.125000 0.000000 0.000000 8.027600 24.386600 -4.034800 5.476228 13.688679 5.622504 42.910623 -19.839753 -31.233556 -128.749506 46.058993 -95.893109 -1.244262 -0.159089 -15.483826 -11.622242 -40.816302 6.881000 7.125000 0.000000 0.000000 36.586500 -68.354800 -21.579500 
